<svg xmlns="http://www.w3.org/2000/svg" viewBox="0 0 130.31 91.22"><defs><style>.cls-1,.cls-4{fill:#183e67;}.cls-2{fill:#fbae1b;}.cls-3{fill:#1f436b;}.cls-4{font-size:17.14px;font-family:Impact;}.cls-5{letter-spacing:-0.01em;}.cls-6{letter-spacing:-0.02em;}</style></defs><g id="Layer_2" data-name="Layer 2"><g id="Layer_1-2" data-name="Layer 1"><path class="cls-1" d="M101.31,35.56a32.3,32.3,0,0,1-26,27.76c-11.16,1.93-20.83-1.09-28.9-9.09A16.17,16.17,0,0,1,43.65,51a27.7,27.7,0,0,1-3.72-6.23.89.89,0,0,1,.35-1.34c2.44-1.77,2.39-1.77,3.78.89.86,1.66,1.87,3.25,2.82,4.87.75.39,1.1,1.13,1.6,1.74.1.11.21.23.32.33h0a29.75,29.75,0,0,0,15.44,8.28A28.43,28.43,0,0,0,93.18,46.84c.6-1,.46-1.21-.65-1.27A29.9,29.9,0,0,0,75.71,50a2.28,2.28,0,0,1-2.31.18c-4.14-1.7-8.32-3.33-12.51-5,0-.66.6-.87,1-1.2,6.31-5.34,13.63-8.77,21.43-11.28A36.35,36.35,0,0,1,95.78,30.6a11.15,11.15,0,0,1,2.22.28C100.8,31.51,101.62,32.7,101.31,35.56Z"/><path class="cls-2" d="M91.3,14.35c-1.89.91-3.77,1.83-5.67,2.73L71,24C61,29.11,51.28,34.57,41.86,40.57A81.48,81.48,0,0,0,26.3,52.68a17.69,17.69,0,0,0-3.59,4.94c-.91,2.08-.28,3.23,2,3.64,3.23.59,6.36-.2,9.49-.79A106.79,106.79,0,0,0,44.58,57.8c.34-.1.64-.28,1-.14.15.3-.13.31-.26.37-6.39,2.71-12.86,5.15-19.74,6.33a18.35,18.35,0,0,1-6.85.16,3.51,3.51,0,0,1-3.13-4.29A11.9,11.9,0,0,1,18,54.79c3.37-4.79,7.81-8.52,12.22-12.28C39.34,34.7,50.08,29.69,61,24.92c4-1.74,7.93-3.47,12.05-4.82A158.53,158.53,0,0,1,91.16,14C91.21,14.12,91.26,14.23,91.3,14.35Z"/><path class="cls-2" d="M97.6.37a3.4,3.4,0,0,1,2.18.86,35.74,35.74,0,0,1,5.19,4,3.14,3.14,0,0,0,3.56.65,15.67,15.67,0,0,1,4-1.06c.77-.06,1.86-.24,2.14.51s-.68,1.22-1.26,1.68a18,18,0,0,1-4,2,3,3,0,0,0-2,2.51,44.31,44.31,0,0,1-1.35,6.73,3.49,3.49,0,0,1-1,1.93c-.73-1.23-.56-2.59-.81-3.85s-.44-2.66-.65-4c-.11-.69-.33-1.14-1.17-.74a4.1,4.1,0,0,1-1.3.35c-2.43.28-4.24,1.15-4.1,4.05,0,.54-.18,1.26-.78,1.27s-.62-.73-.71-1.2a22.24,22.24,0,0,0-2.39-6.41c-.21-.4-.66-1-.2-1.37s1,.22,1.43.45c.09,0,.15.13.24.18.83.51,1.44,1.88,2.34,1.63a28.16,28.16,0,0,0,4.86-2.27c.48-.24.08-.64-.06-.89-.7-1.21-1.44-2.39-2.18-3.58A19.61,19.61,0,0,1,97.6.37Z"/><path class="cls-3" d="M37.3,35C36.94,21.51,41.68,10.86,53.46,4c9.8-5.69,21.27-5,28.82-.24-.44.32-.75-.09-1.06-.23C61.84-5,41.79,9.3,40.44,28.65c0,.5,0,1,0,1.5C40.45,33.31,40.45,33.31,37.3,35Z"/><path class="cls-1" d="M48.81,51.29,48.48,51Z"/><text class="cls-4" transform="translate(0.1 85.56)">VI<tspan class="cls-5" x="13.91" y="0">E</tspan><tspan x="20.81" y="0">TNAMJOYTR</tspan><tspan class="cls-6" x="99.27" y="0">A</tspan><tspan x="107.6" y="0">VEL</tspan></text></g></g></svg>