<svg xmlns="http://www.w3.org/2000/svg" viewBox="0 0 217.16 152.02"><defs><style>.cls-1,.cls-4{fill:#183e67;}.cls-2{fill:#fbae1b;}.cls-3{fill:#1f436b;}.cls-4{font-size:28.57px;font-family:Impact;}.cls-5{letter-spacing:-0.01em;}.cls-6{letter-spacing:-0.02em;}</style></defs><g id="Layer_2" data-name="Layer 2"><g id="Layer_1-2" data-name="Layer 1"><path class="cls-1" d="M168.82,59.25c-2.54,22.8-20.74,42.34-43.36,46.26-18.6,3.23-34.71-1.81-48.16-15.14A26.81,26.81,0,0,1,72.74,85a46.31,46.31,0,0,1-6.2-10.39,1.48,1.48,0,0,1,.58-2.23c4.07-3,4-3,6.3,1.49,1.44,2.77,3.12,5.42,4.7,8.12,1.25.64,1.84,1.87,2.67,2.9.17.18.35.37.53.54l0,0a49.39,49.39,0,0,0,25.72,13.79c18.36,3.57,38.46-5.25,48.22-21.21,1-1.63.76-2-1.09-2.11-10.14-.53-19.37,2.4-28,7.42a3.86,3.86,0,0,1-3.85.3c-6.91-2.84-13.87-5.56-20.85-8.33,0-1.1,1-1.45,1.63-2,10.52-8.9,22.72-14.62,35.72-18.8,6.75-2.16,13.62-3.81,20.79-3.55a19.2,19.2,0,0,1,3.7.46C168,52.51,169.35,54.49,168.82,59.25Z"/><path class="cls-2" d="M152.15,23.91c-3.15,1.52-6.29,3.05-9.46,4.55L118.23,40C101.68,48.51,85.46,57.61,69.75,67.6c-9.28,5.9-18.28,12.18-25.92,20.18a29.25,29.25,0,0,0-6,8.24c-1.52,3.46-.48,5.38,3.26,6.07,5.38,1,10.6-.34,15.81-1.32C62.8,99.66,68.55,98,74.29,96.32c.56-.16,1.07-.46,1.68-.23.25.49-.21.51-.44.61-10.64,4.52-21.42,8.59-32.88,10.55a30.67,30.67,0,0,1-11.42.27c-3.9-.79-5.69-3.21-5.22-7.15a19.83,19.83,0,0,1,3.9-9.07c5.62-8,13-14.19,20.37-20.46,15.27-13,33.17-21.36,51.3-29.31,6.6-2.9,13.22-5.79,20.09-8a261.94,261.94,0,0,1,30.24-10.17Z"/><path class="cls-2" d="M162.64.62c1.67-.09,2.63.79,3.65,1.43a60,60,0,0,1,8.64,6.73,5.22,5.22,0,0,0,5.93,1.09,25.34,25.34,0,0,1,6.72-1.76c1.28-.11,3.09-.41,3.57.84S190,11,189,11.75a29.15,29.15,0,0,1-6.66,3.31A4.94,4.94,0,0,0,179,19.24a74.18,74.18,0,0,1-2.25,11.23,5.85,5.85,0,0,1-1.66,3.21c-1.21-2.05-.93-4.32-1.35-6.42s-.73-4.42-1.08-6.64c-.18-1.15-.54-1.91-1.94-1.24a6.72,6.72,0,0,1-2.16.58c-4.06.47-7.07,1.91-6.83,6.76,0,.89-.31,2.1-1.31,2.11-.82,0-1-1.22-1.19-2a37.55,37.55,0,0,0-4-10.69c-.36-.66-1.11-1.63-.33-2.27s1.61.36,2.37.74c.15.07.26.22.4.3,1.38.85,2.4,3.14,3.9,2.72,2.83-.81,5.43-2.42,8.09-3.78.81-.41.14-1.07-.09-1.48-1.17-2-2.4-4-3.63-6A34.23,34.23,0,0,1,162.64.62Z"/><path class="cls-3" d="M62.17,58.28C61.56,35.85,69.46,18.1,89.09,6.72c16.33-9.46,35.45-8.32,48-.39-.73.54-1.25-.14-1.77-.38-32.3-14.32-65.71,9.55-68,41.79-.06.83-.06,1.67,0,2.5C67.41,55.52,67.41,55.52,62.17,58.28Z"/><text class="cls-4" transform="translate(0.17 142.58)">VI<tspan class="cls-5" x="23.18" y="0">E</tspan><tspan x="34.68" y="0">TNAMJOYTR</tspan><tspan class="cls-6" x="165.42" y="0">A</tspan><tspan x="179.3" y="0">VEL</tspan></text></g></g></svg>